<?xml version="1.0" encoding="UTF-8"?>
<!DOCTYPE svg PUBLIC "-//W3C//DTD SVG 1.1//EN" "http://www.w3.org/Graphics/SVG/1.1/DTD/svg11.dtd">
<svg xmlns="http://www.w3.org/2000/svg" version="1.1" width="823px" height="687px" style="shape-rendering:geometricPrecision; text-rendering:geometricPrecision; image-rendering:optimizeQuality; fill-rule:evenodd; clip-rule:evenodd" xmlns:xlink="http://www.w3.org/1999/xlink">
<g><path style="opacity:1" fill="#303130" d="M 194.5,-0.5 C 208.833,-0.5 223.167,-0.5 237.5,-0.5C 357.833,0.833333 478.167,0.833333 598.5,-0.5C 598.833,-0.5 599.167,-0.5 599.5,-0.5C 661.665,0.332878 723.999,0.832878 786.5,1C 807.204,6.8655 819.204,20.3655 822.5,41.5C 822.5,243.167 822.5,444.833 822.5,646.5C 818.358,667.974 805.691,681.308 784.5,686.5C 535.5,686.5 286.5,686.5 37.5,686.5C 15.6587,680.827 2.99204,666.827 -0.5,644.5C -0.5,637.167 -0.5,629.833 -0.5,622.5C 0.833333,621.833 0.833333,621.167 -0.5,620.5C -0.5,603.167 -0.5,585.833 -0.5,568.5C 0.833333,567.5 0.833333,566.5 -0.5,565.5C -0.5,564.167 -0.5,562.833 -0.5,561.5C 0.833333,561.167 0.833333,560.833 -0.5,560.5C -0.5,560.167 -0.5,559.833 -0.5,559.5C 0.833333,559.167 0.833333,558.833 -0.5,558.5C -0.5,556.833 -0.5,555.167 -0.5,553.5C 0.833333,552.167 0.833333,550.833 -0.5,549.5C -0.5,548.833 -0.5,548.167 -0.5,547.5C 0.833333,546.5 0.833333,545.5 -0.5,544.5C -0.5,543.5 -0.5,542.5 -0.5,541.5C 0.833333,541.167 0.833333,540.833 -0.5,540.5C -0.5,540.167 -0.5,539.833 -0.5,539.5C 0.833333,539.167 0.833333,538.833 -0.5,538.5C -0.5,538.167 -0.5,537.833 -0.5,537.5C 0.833333,536.5 0.833333,535.5 -0.5,534.5C -0.5,533.833 -0.5,533.167 -0.5,532.5C 0.833333,532.167 0.833333,531.833 -0.5,531.5C -0.5,531.167 -0.5,530.833 -0.5,530.5C 0.833333,530.167 0.833333,529.833 -0.5,529.5C -0.5,527.5 -0.5,525.5 -0.5,523.5C 0.833333,523.167 0.833333,522.833 -0.5,522.5C -0.5,521.167 -0.5,519.833 -0.5,518.5C 0.833333,518.167 0.833333,517.833 -0.5,517.5C -0.5,516.833 -0.5,516.167 -0.5,515.5C 0.833333,515.167 0.833333,514.833 -0.5,514.5C -0.5,508.167 -0.5,501.833 -0.5,495.5C 0.833333,495.167 0.833333,494.833 -0.5,494.5C -0.5,492.5 -0.5,490.5 -0.5,488.5C 0.833333,487.833 0.833333,487.167 -0.5,486.5C -0.5,483.833 -0.5,481.167 -0.5,478.5C 0.833333,477.5 0.833333,476.5 -0.5,475.5C -0.5,466.833 -0.5,458.167 -0.5,449.5C 0.833333,449.167 0.833333,448.833 -0.5,448.5C -0.5,313.167 -0.5,177.833 -0.5,42.5C 2.02515,26.4789 10.0251,13.9789 23.5,5C 27.8026,2.3303 32.3026,1.16364 37,1.5C 89.5977,0.835452 142.098,0.168786 194.5,-0.5 Z"/></g>
<g><path style="opacity:1" fill="#fafbfb" d="M 531.5,41.5 C 550.338,41.8353 563.838,50.502 572,67.5C 577.09,83.4352 574.757,98.1018 565,111.5C 546.928,128.326 527.762,129.826 507.5,116C 499.961,108.718 495.461,99.8843 494,89.5C 492.502,62.5043 505.002,46.5043 531.5,41.5 Z"/></g>
<g><path style="opacity:1" fill="#fafafa" d="M 632.5,41.5 C 651.021,39.9811 665.188,46.9811 675,62.5C 682.984,78.7158 681.984,94.3825 672,109.5C 655.394,127.484 636.56,130.317 615.5,118C 596.18,100.49 593.347,80.6567 607,58.5C 614.217,50.6601 622.717,44.9935 632.5,41.5 Z"/></g>
<g><path style="opacity:1" fill="#fafbfa" d="M 782.5,101.5 C 769.024,124.141 750.024,130.641 725.5,121C 702.603,104.941 697.77,84.4412 711,59.5C 725.749,42.1392 743.583,37.9725 764.5,47C 784.568,60.3726 790.568,78.5393 782.5,101.5 Z"/></g>
<g><path style="opacity:1" fill="#fbfcfb" d="M 550.5,165.5 C 550.833,166.833 551.167,166.833 551.5,165.5C 633.5,165.5 715.5,165.5 797.5,165.5C 797.667,223.168 797.5,280.834 797,338.5C 782.868,305.524 761.701,277.857 733.5,255.5C 729.191,252.198 724.857,248.864 720.5,245.5C 701.25,232.872 680.584,223.539 658.5,217.5C 589.686,200.832 528.019,214.999 473.5,260C 437.366,292.425 414.866,332.592 406,380.5C 404.692,392.461 404.192,404.461 404.5,416.5C 403.167,416.833 403.167,417.167 404.5,417.5C 404.559,433.231 406.559,448.564 410.5,463.5C 410.294,466.495 410.96,469.162 412.5,471.5C 416.154,484.531 421.154,496.864 427.5,508.5C 444.653,540.986 468.986,566.653 500.5,585.5C 536.697,607.789 576.363,617.623 619.5,615C 697.622,607.198 755.122,568.698 792,499.5C 793.229,495.379 794.729,491.379 796.5,487.5C 797.499,540.331 797.832,593.331 797.5,646.5C 795.792,653.707 791.458,658.541 784.5,661C 534.112,661.997 283.778,661.664 33.5,660C 29.1058,656.932 26.2725,652.765 25,647.5C 24.5,486.834 24.3333,326.167 24.5,165.5C 199.833,165.5 375.167,165.5 550.5,165.5 Z"/></g>
<g><path style="opacity:1" fill="#fbfcfb" d="M 782.5,455.5 C 761.583,525.58 715.583,569.746 644.5,588C 560.338,601.653 495.504,572.819 450,501.5C 429.021,463.333 422.354,422.666 430,379.5C 443.877,319.55 478.377,276.05 533.5,249C 602.264,222.509 665.597,231.843 723.5,277C 777.017,325.053 796.684,384.553 782.5,455.5 Z"/></g>
<g><path style="opacity:1" fill="#2f302f" d="M 165.5,242.5 C 187.603,254.721 209.603,267.221 231.5,280C 233.65,281.411 235.984,282.245 238.5,282.5C 287.853,311.69 337.853,340.19 388.5,368C 389.98,369.299 390.646,370.966 390.5,373C 389.837,376.473 389.504,379.973 389.5,383.5C 387.988,388.929 387.321,394.596 387.5,400.5C 386.834,404.486 386.501,408.653 386.5,413C 386.353,419.731 387.02,426.231 388.5,432.5C 388.475,439.729 389.142,446.896 390.5,454C 390.561,455.711 389.894,457.044 388.5,458C 314.082,499.563 239.748,541.396 165.5,583.5C 164.532,581.393 164.198,579.059 164.5,576.5C 164.5,567.833 164.5,559.167 164.5,550.5C 164.167,447.665 164.501,344.999 165.5,242.5 Z"/></g>
<g><path style="opacity:1" fill="#7f807f" d="M 165.5,242.5 C 164.501,344.999 164.167,447.665 164.5,550.5C 164.167,550.5 163.833,550.5 163.5,550.5C 163.167,447.498 163.5,344.498 164.5,241.5C 165.107,241.624 165.44,241.957 165.5,242.5 Z"/></g>
<g><path style="opacity:1" fill="#2f302f" d="M 553.5,297.5 C 616.27,336.728 679.603,375.228 743.5,413C 737.325,416.588 730.991,419.922 724.5,423C 667.781,458.023 610.781,492.523 553.5,526.5C 552.167,450.167 552.167,373.833 553.5,297.5 Z"/></g>
<g><path style="opacity:1" fill="#b6b7b6" d="M 553.5,297.5 C 552.167,373.833 552.167,450.167 553.5,526.5C 553.44,527.043 553.107,527.376 552.5,527.5C 551.167,450.5 551.167,373.5 552.5,296.5C 553.107,296.624 553.44,296.957 553.5,297.5 Z"/></g>
<g><path style="opacity:1" fill="#a0a1a1" d="M 389.5,383.5 C 389.404,389.373 388.737,395.04 387.5,400.5C 387.321,394.596 387.988,388.929 389.5,383.5 Z"/></g>
<g><path style="opacity:1" fill="#909191" d="M 387.5,400.5 C 387.39,411.185 387.723,421.852 388.5,432.5C 387.02,426.231 386.353,419.731 386.5,413C 386.501,408.653 386.834,404.486 387.5,400.5 Z"/></g>
<g><path style="opacity:1" fill="#707270" d="M 796.5,487.5 C 796.56,486.957 796.893,486.624 797.5,486.5C 798.831,539.998 798.831,593.332 797.5,646.5C 797.832,593.331 797.499,540.331 796.5,487.5 Z"/></g>
<g><path style="opacity:1" fill="#a5a7a5" d="M 163.5,576.5 C 163.833,576.5 164.167,576.5 164.5,576.5C 164.198,579.059 164.532,581.393 165.5,583.5C 165.44,584.043 165.107,584.376 164.5,584.5C 163.52,581.914 163.187,579.247 163.5,576.5 Z"/></g>
</svg>
